# Blender v2.83.0 OBJ File: 'arsenal.blend'
# www.blender.org
mtllib lightning.mtl
o Lightning_Cube.001
v 0.737467 0.870945 0.004710
v 0.575903 -0.874494 0.008751
v 0.719388 0.870924 0.010216
v 0.536972 -0.874494 0.014082
v 0.705732 0.870905 0.007363
v 0.522821 -0.874494 0.000664
v 0.675955 0.870950 0.018279
v 0.508606 -0.874494 0.028605
v 0.680457 0.005485 0.012744
v 0.651952 0.005475 0.018163
v 0.616052 0.005488 0.029455
v 0.638048 0.005465 0.010027
v 0.650686 -0.049096 0.005727
v 0.691488 -0.115531 -0.000819
v 0.656080 -0.183331 0.003062
v 0.718064 -0.250304 -0.007416
v 0.584636 -0.337287 0.007028
v 0.618908 -0.388848 0.018268
v 0.730595 -0.446087 0.002890
v 0.731878 -0.512127 0.002993
v 0.733161 -0.578168 0.003095
v 0.692862 -0.632905 0.013738
v 0.572909 -0.720399 0.008512
v 0.574192 -0.786440 0.008614
v 0.536331 -0.786441 0.013954
v 0.535849 -0.720401 0.013858
v 0.656605 -0.632908 0.019091
v 0.697706 -0.578171 0.008455
v 0.697225 -0.512132 0.008359
v 0.696743 -0.446092 0.008263
v 0.585859 -0.388854 0.023649
v 0.552389 -0.337294 0.012415
v 0.686619 -0.250312 -0.002022
v 0.625436 -0.183339 0.008462
v 0.661646 -0.115541 0.004588
v 0.621647 -0.049106 0.011140
v 0.507191 -0.786440 0.028146
v 0.506131 -0.720399 0.027801
v 0.626306 -0.632904 0.032785
v 0.666828 -0.578167 0.021902
v 0.665768 -0.512126 0.021557
v 0.664707 -0.446086 0.021213
v 0.553243 -0.388847 0.036349
v 0.519193 -0.337285 0.024867
v 0.652844 -0.250303 0.010182
v 0.591082 -0.183329 0.020417
v 0.626712 -0.115529 0.016295
v 0.586133 -0.049094 0.022599
v 0.522205 -0.786442 0.001078
v 0.521742 -0.720403 0.001388
v 0.642517 -0.632910 0.007027
v 0.683637 -0.578174 -0.003202
v 0.683175 -0.512136 -0.002891
v 0.682713 -0.446097 -0.002581
v 0.571847 -0.388860 0.013210
v 0.538396 -0.337300 0.002383
v 0.672645 -0.250319 -0.011648
v 0.611482 -0.183347 -0.000757
v 0.647711 -0.115549 -0.004224
v 0.607730 -0.049115 0.002734
v 0.769022 0.105832 0.024693
v 0.768326 0.201223 0.024555
v 0.649858 0.292792 0.017745
v 0.536324 0.376874 0.019201
v 0.688662 0.486909 0.014676
v 0.776568 0.589572 0.008536
v 0.647209 0.677695 0.010762
v 0.646513 0.773085 0.010623
v 0.732275 0.105847 0.035623
v 0.730742 0.201239 0.035125
v 0.611437 0.292810 0.027957
v 0.497066 0.376893 0.029054
v 0.648567 0.486929 0.024170
v 0.735636 0.589595 0.017671
v 0.605308 0.674378 0.025966
v 0.603907 0.773110 0.019041
v 0.755145 0.105822 0.017152
v 0.754478 0.201211 0.017600
v 0.636037 0.292779 0.011377
v 0.522531 0.376860 0.013420
v 0.674896 0.486894 0.009482
v 0.762829 0.589557 0.003929
v 0.633498 0.677678 0.006742
v 0.632830 0.773067 0.007190
v 0.665737 0.773105 0.005127
v 0.667590 0.677714 0.005276
v 0.798108 0.589590 0.003059
v 0.711361 0.486925 0.009209
v 0.560181 0.376889 0.013744
v 0.674873 0.292806 0.012297
v 0.794500 0.201236 0.019117
v 0.796354 0.105844 0.019265
vt 0.419646 0.518020
vt 0.387377 0.522297
vt 0.386865 0.520189
vt 0.289337 0.684737
vt 0.249288 0.687703
vt 0.288995 0.682595
vt 0.051736 0.000144
vt 0.115460 0.004648
vt 0.052468 0.002638
vt 0.777551 0.339365
vt 0.731680 0.338021
vt 0.777599 0.336989
vt 0.563121 0.359215
vt 0.552226 0.365912
vt 0.558775 0.340466
vt 0.404532 0.546544
vt 0.428156 0.569172
vt 0.365003 0.554358
vt 0.587423 0.049068
vt 0.649310 0.050680
vt 0.553412 0.049856
vt 0.076095 0.546508
vt 0.104465 0.454941
vt 0.122079 0.549070
vt 0.303166 0.370546
vt 0.316382 0.295643
vt 0.354720 0.290135
vt 0.481390 0.358591
vt 0.526705 0.297037
vt 0.551937 0.295589
vt 0.684521 0.049902
vt 0.676404 0.061810
vt 0.683413 0.083974
vt 0.712182 0.061565
vt 0.672869 0.098920
vt 0.646786 0.083419
vt 0.667972 0.135307
vt 0.710369 0.098703
vt 0.725571 0.196394
vt 0.629589 0.134758
vt 0.731776 0.213054
vt 0.764857 0.196202
vt 0.657239 0.276237
vt 0.691586 0.213985
vt 0.657112 0.278015
vt 0.616111 0.276469
vt 0.656989 0.279794
vt 0.615044 0.278062
vt 0.636465 0.314125
vt 0.613971 0.279651
vt 0.680441 0.313598
vt 0.732705 0.336400
vt 0.777639 0.335206
vt 0.062964 0.425719
vt 0.056677 0.453802
vt 0.088371 0.400555
vt 0.111576 0.426211
vt 0.121587 0.376717
vt 0.138197 0.402043
vt 0.109075 0.336953
vt 0.070489 0.376152
vt 0.100668 0.243397
vt 0.161424 0.338469
vt 0.047015 0.242758
vt 0.085141 0.210249
vt 0.090117 0.133384
vt 0.030205 0.208702
vt 0.089659 0.131490
vt 0.146337 0.135840
vt 0.089196 0.129597
vt 0.147191 0.134303
vt 0.119182 0.104271
vt 0.148051 0.132770
vt 0.058940 0.101837
vt 0.114642 0.006204
vt 0.053013 0.004509
vt 0.298923 0.399481
vt 0.264661 0.374993
vt 0.295188 0.411478
vt 0.260342 0.403445
vt 0.308354 0.423754
vt 0.333733 0.406787
vt 0.323119 0.440711
vt 0.269669 0.427729
vt 0.269960 0.501982
vt 0.361796 0.436004
vt 0.273531 0.539060
vt 0.231114 0.505974
vt 0.325186 0.576472
vt 0.234666 0.543786
vt 0.364389 0.572606
vt 0.364070 0.571011
vt 0.364714 0.574200
vt 0.325426 0.578406
vt 0.327107 0.590766
vt 0.325661 0.580341
vt 0.288743 0.680988
vt 0.287796 0.596224
vt 0.249175 0.685757
vt 0.469861 0.385071
vt 0.455375 0.360568
vt 0.479054 0.386720
vt 0.443489 0.387289
vt 0.477072 0.392282
vt 0.506009 0.384690
vt 0.504315 0.391645
vt 0.449572 0.394648
vt 0.423122 0.415913
vt 0.532389 0.389314
vt 0.411049 0.451954
vt 0.394501 0.418585
vt 0.440272 0.449517
vt 0.507026 0.449667
vt 0.536852 0.447457
vt 0.507408 0.451248
vt 0.537822 0.449079
vt 0.507788 0.452830
vt 0.500125 0.463022
vt 0.538793 0.450701
vt 0.418664 0.516405
vt 0.468515 0.464926
vt 0.386481 0.518608
vt 0.459331 0.040056
vt 0.481994 0.001386
vt 0.501200 0.000144
vt 0.460525 0.042511
vt 0.439483 0.041958
vt 0.530577 0.095999
vt 0.439940 0.044263
vt 0.488844 0.128037
vt 0.551937 0.094767
vt 0.387784 0.196856
vt 0.466774 0.129874
vt 0.448113 0.237695
vt 0.365003 0.199297
vt 0.471717 0.235694
vt 0.526236 0.294734
vt 0.550662 0.293175
vt 0.267424 0.033907
vt 0.276371 0.005729
vt 0.315521 0.000144
vt 0.268024 0.036179
vt 0.228340 0.038448
vt 0.326016 0.080515
vt 0.222781 0.053492
vt 0.301333 0.110106
vt 0.364714 0.075451
vt 0.200424 0.180772
vt 0.262628 0.114113
vt 0.241913 0.229196
vt 0.161713 0.183719
vt 0.280471 0.225200
vt 0.315763 0.292897
vt 0.354166 0.287851
vt 0.093669 0.997418
vt 0.090869 0.954445
vt 0.128191 0.999856
vt 0.055149 0.953900
vt 0.092031 0.952187
vt 0.123196 0.872013
vt 0.043453 0.942927
vt 0.113430 0.820483
vt 0.161424 0.874169
vt 0.073728 0.820053
vt 0.041320 0.720704
vt 0.045704 0.641847
vt 0.000144 0.722001
vt 0.076466 0.549298
vt 0.088459 0.642181
vt 0.120801 0.551264
vt 0.605054 0.000541
vt 0.619718 0.007207
vt 0.592119 0.000144
vt 0.632480 0.009516
vt 0.632931 0.008350
vt 0.581075 0.008087
vt 0.618908 0.008280
vt 0.623263 0.020103
vt 0.552226 0.006442
vt 0.653062 0.020393
vt 0.746887 0.029621
vt 0.685350 0.039018
vt 0.777639 0.028566
vt 0.587776 0.046517
vt 0.653549 0.038789
vt 0.554906 0.047526
vt 0.420956 0.520173
vt 0.249429 0.690298
vt 0.116557 0.002577
vt 0.730308 0.340177
vt 0.563121 0.398760
vt 0.428156 0.522585
vn -0.1397 -0.0025 -0.9902
vn -0.4379 -0.0045 -0.8990
vn 0.8744 0.0166 0.4850
vn -0.1435 -0.0057 0.9896
vn 0.0013 -1.0000 0.0004
vn 0.0000 1.0000 0.0000
vn -0.0512 -0.0057 0.9987
vn 0.4931 -0.6188 0.6115
vn -0.2650 0.3672 -0.8916
vn -0.1873 0.2775 -0.9423
vn -0.0636 -0.0931 0.9936
vn -0.0687 -0.1447 0.9871
vn -0.0772 0.0971 0.9923
vn -0.0829 -0.2332 0.9689
vn -0.0888 0.2942 0.9516
vn -0.0990 0.1426 0.9848
vn -0.0962 -0.4335 0.8960
vn -0.1135 -0.0055 0.9935
vn -0.1199 -0.0055 0.9928
vn -0.1213 0.2748 0.9538
vn -0.1312 0.1210 0.9839
vn -0.1379 -0.0056 0.9904
vn 0.6019 -0.4156 0.6819
vn 0.6404 0.3251 0.6959
vn 0.6622 -0.3192 0.6780
vn 0.6290 0.4875 0.6056
vn 0.5146 -0.7189 0.4673
vn 0.6436 0.5329 0.5493
vn 0.4635 0.8041 0.3722
vn 0.7973 0.0160 0.6034
vn 0.8145 0.0161 0.5799
vn 0.7371 -0.4615 0.4937
vn 0.5411 -0.7689 0.3407
vn 0.8608 0.0165 0.5088
vn -0.2882 0.2779 -0.9164
vn -0.3057 -0.0968 -0.9472
vn -0.3156 0.1148 -0.9419
vn -0.3246 -0.1568 -0.9327
vn -0.3188 0.3455 -0.8826
vn -0.3225 -0.3966 -0.8595
vn -0.3297 -0.4182 -0.8464
vn -0.3747 -0.0041 -0.9271
vn -0.3869 -0.0042 -0.9221
vn -0.3963 0.1208 -0.9101
vn -0.3496 0.5287 -0.7735
vn -0.4247 -0.0044 -0.9053
vn -0.1821 0.2225 -0.9578
vn -0.1832 -0.0134 -0.9830
vn -0.1782 0.0368 -0.9833
vn -0.1736 -0.0044 -0.9848
vn -0.1683 0.0953 -0.9811
vn -0.1568 -0.3063 -0.9389
vn -0.1605 -0.0459 -0.9860
vn -0.1568 -0.0026 -0.9876
vn -0.1530 -0.0026 -0.9882
vn -0.1490 -0.0819 -0.9854
vn -0.1414 0.2511 -0.9576
vn -0.1428 -0.0025 -0.9897
vn -0.2853 0.2052 -0.9362
vn -0.2749 -0.0068 -0.9615
vn -0.2445 -0.3360 -0.9096
vn -0.2438 0.1486 -0.9584
vn -0.2256 0.2713 -0.9357
vn -0.2143 -0.2732 -0.9378
vn -0.2008 -0.3284 -0.9229
vn -0.2034 -0.0029 -0.9791
vn -0.1809 0.1307 -0.9748
vn -0.1938 -0.0028 -0.9810
vn -0.2923 -0.3628 -0.8848
vn -0.2160 0.1270 -0.9681
vn -0.2218 0.2685 -0.9374
vn -0.2321 -0.3036 -0.9241
vn -0.2378 -0.3798 -0.8940
vn -0.2707 -0.0094 -0.9626
vn 0.3330 -0.2497 0.9093
vn 0.3791 -0.0017 0.9253
vn 0.4161 0.5704 0.7081
vn 0.4270 -0.3200 0.8458
vn 0.4093 -0.5405 0.7351
vn 0.4289 0.5743 0.6973
vn 0.4382 0.6218 0.6491
vn 0.5939 0.0137 0.8044
vn 0.0832 -0.0568 0.9949
vn 0.0626 -0.0043 0.9980
vn 0.0429 0.0311 0.9986
vn 0.0246 0.0391 0.9989
vn 0.0075 0.0309 0.9995
vn -0.0086 -0.0358 0.9993
vn -0.0237 0.0372 0.9990
vn -0.0379 -0.0050 0.9993
vn -0.1357 -0.0042 -0.9907
vn -0.4557 -0.0120 -0.8901
vn 0.8913 0.0041 0.4534
vn -0.1506 -0.0014 0.9886
vn 0.0003 -1.0000 0.0051
vn -0.0639 0.0038 0.9979
vn 0.5135 -0.6304 0.5821
vn -0.2779 0.3762 -0.8839
vn -0.1798 0.2713 -0.9455
vn -0.0691 -0.0943 0.9931
vn -0.0767 -0.1443 0.9866
vn -0.0850 0.0961 0.9917
vn -0.0901 -0.2348 0.9679
vn -0.0954 0.3004 0.9490
vn -0.1058 0.1442 0.9839
vn -0.1019 -0.4388 0.8928
vn -0.1199 -0.0008 0.9928
vn -0.1261 -0.0009 0.9920
vn -0.1271 0.2737 0.9534
vn -0.1368 0.1255 0.9826
vn -0.1435 -0.0012 0.9897
vn 0.6114 -0.4285 0.6652
vn 0.6607 0.3268 0.6758
vn 0.6825 -0.3187 0.6578
vn 0.6444 0.4935 0.5841
vn 0.5221 -0.7268 0.4463
vn 0.6523 0.5475 0.5242
vn 0.4684 0.8095 0.3540
vn 0.8146 0.0030 0.5800
vn 0.8309 0.0032 0.5564
vn 0.7507 -0.4618 0.4725
vn 0.5480 -0.7712 0.3240
vn 0.8745 0.0038 0.4850
vn -0.2950 0.2766 -0.9146
vn -0.3163 -0.0974 -0.9437
vn -0.3265 0.1145 -0.9382
vn -0.3354 -0.1611 -0.9282
vn -0.3281 0.3564 -0.8748
vn -0.3313 -0.4082 -0.8506
vn -0.3383 -0.4305 -0.8368
vn -0.3869 -0.0110 -0.9221
vn -0.3992 -0.0112 -0.9168
vn -0.4087 0.1228 -0.9044
vn -0.3585 0.5360 -0.7643
vn -0.4378 -0.0117 -0.8990
vn -0.1787 0.2225 -0.9584
vn -0.1783 -0.0126 -0.9839
vn -0.1735 0.0364 -0.9842
vn -0.1691 -0.0023 -0.9856
vn -0.1641 0.0902 -0.9823
vn -0.1529 -0.3064 -0.9395
vn -0.1566 -0.0405 -0.9868
vn -0.1530 -0.0045 -0.9882
vn -0.1495 -0.0044 -0.9888
vn -0.1456 -0.0823 -0.9859
vn -0.1383 0.2483 -0.9588
vn -0.1397 -0.0043 -0.9902
vn -0.2697 0.1970 -0.9426
vn -0.2599 -0.0033 -0.9656
vn -0.2330 -0.3221 -0.9176
vn -0.2319 0.1410 -0.9625
vn -0.2155 0.2596 -0.9414
vn -0.2051 -0.2636 -0.9426
vn -0.1925 -0.3206 -0.9275
vn -0.1948 -0.0053 -0.9808
vn -0.1920 0.1338 -0.9722
vn -0.3353 -0.0707 -0.9395
vn -0.2091 -0.2832 -0.9360
vn -0.2283 0.1326 -0.9645
vn -0.2335 0.2802 -0.9311
vn -0.2440 -0.3136 -0.9176
vn -0.2496 -0.3889 -0.8868
vn -0.2851 -0.0035 -0.9585
vn 0.3655 -0.2622 0.8931
vn 0.5569 0.0660 0.8279
vn 0.3814 0.5358 0.7533
vn 0.4584 -0.3367 0.8225
vn 0.4318 -0.5632 0.7045
vn 0.4508 0.5923 0.6678
vn 0.4590 0.6358 0.6206
vn 0.6283 0.0007 0.7780
vn 0.0626 -0.0484 0.9969
vn 0.0430 0.0024 0.9991
vn 0.0246 0.0113 0.9996
vn 0.0074 0.0477 0.9988
vn -0.0086 0.0477 0.9988
vn -0.0236 -0.0494 0.9985
vn -0.0379 0.0249 0.9990
vn -0.0512 0.0006 0.9987
usemtl Material.004
s off
f 24/1/1 4/2/1 25/3/1
f 4/4/2 37/5/2 25/6/2
f 8/7/3 49/8/3 37/9/3
f 6/10/4 24/11/4 49/12/4
f 3/13/5 5/14/5 1/15/5
f 4/16/6 6/17/6 8/18/6
f 77/19/7 9/20/7 92/21/7
f 69/22/8 12/23/8 77/24/8
f 10/25/9 69/26/9 61/27/9
f 9/28/10 61/29/10 92/30/10
f 12/31/11 13/32/11 9/20/11
f 59/33/12 13/32/12 60/34/12
f 59/33/13 15/35/13 14/36/13
f 57/37/14 15/35/14 58/38/14
f 57/37/15 17/39/15 16/40/15
f 55/41/16 17/39/16 56/42/16
f 54/43/17 18/44/17 55/41/17
f 53/45/18 19/46/18 54/43/18
f 52/47/19 20/48/19 53/45/19
f 52/47/20 22/49/20 21/50/20
f 51/51/21 23/52/21 22/49/21
f 49/12/22 23/52/22 50/53/22
f 48/54/23 12/23/23 11/55/23
f 47/56/24 60/57/24 48/54/24
f 47/56/25 58/58/25 59/59/25
f 45/60/26 58/58/26 46/61/26
f 45/60/27 56/62/27 57/63/27
f 44/64/28 55/65/28 56/62/28
f 42/66/29 55/65/29 43/67/29
f 41/68/30 54/69/30 42/66/30
f 40/70/31 53/71/31 41/68/31
f 40/70/32 51/72/32 52/73/32
f 39/74/33 50/75/33 51/72/33
f 37/9/34 50/75/34 38/76/34
f 36/77/35 11/78/35 10/25/35
f 36/77/36 47/79/36 48/80/36
f 34/81/37 47/79/37 35/82/37
f 34/81/38 45/83/38 46/84/38
f 32/85/39 45/83/39 33/86/39
f 31/87/40 44/88/40 32/85/40
f 31/87/41 42/89/41 43/90/41
f 29/91/42 42/89/42 30/92/42
f 28/93/43 41/94/43 29/91/43
f 27/95/44 40/96/44 28/93/44
f 26/97/45 39/98/45 27/95/45
f 25/6/46 38/99/46 26/97/46
f 13/100/47 10/101/47 9/28/47
f 13/100/48 35/102/48 36/103/48
f 15/104/49 35/102/49 14/105/49
f 15/104/50 33/106/50 34/107/50
f 17/108/51 33/106/51 16/109/51
f 17/108/52 31/110/52 32/111/52
f 18/112/53 30/113/53 31/110/53
f 19/114/54 29/115/54 30/113/54
f 20/116/55 28/117/55 29/115/55
f 22/118/56 28/117/56 21/119/56
f 23/120/57 27/121/57 22/118/57
f 23/120/58 25/3/58 26/122/58
f 85/123/59 3/124/59 1/125/59
f 86/126/60 68/127/60 85/123/60
f 86/126/61 66/128/61 67/129/61
f 88/130/62 66/128/62 87/131/62
f 89/132/63 65/133/63 88/130/63
f 89/132/64 63/134/64 64/135/64
f 90/136/65 62/137/65 63/134/65
f 91/138/66 61/29/66 62/137/66
f 68/139/67 7/140/67 3/141/67
f 67/142/68 76/143/68 68/139/68
f 67/142/69 74/144/69 75/145/69
f 65/146/70 74/144/70 66/147/70
f 64/148/71 73/149/71 65/146/71
f 64/148/72 71/150/72 72/151/72
f 63/152/73 70/153/73 71/150/73
f 62/154/74 69/26/74 70/153/74
f 7/155/75 84/156/75 5/157/75
f 76/158/76 83/159/76 84/156/76
f 74/160/77 83/159/77 75/161/77
f 74/160/78 81/162/78 82/163/78
f 73/164/79 80/165/79 81/162/79
f 71/166/80 80/165/80 72/167/80
f 70/168/81 79/169/81 71/166/81
f 69/22/82 78/170/82 70/168/82
f 5/171/83 85/172/83 1/173/83
f 83/174/84 85/172/84 84/175/84
f 82/176/85 86/177/85 83/174/85
f 82/176/86 88/178/86 87/179/86
f 81/180/87 89/181/87 88/178/87
f 79/182/88 89/181/88 80/183/88
f 78/184/89 90/185/89 79/182/89
f 77/19/90 91/186/90 78/184/90
f 24/1/91 2/187/91 4/2/91
f 4/4/92 8/188/92 37/5/92
f 8/7/93 6/189/93 49/8/93
f 6/10/94 2/190/94 24/11/94
f 3/13/95 7/191/95 5/14/95
f 4/16/6 2/192/6 6/17/6
f 77/19/96 12/31/96 9/20/96
f 69/22/97 11/55/97 12/23/97
f 10/25/98 11/78/98 69/26/98
f 9/28/99 10/101/99 61/29/99
f 12/31/100 60/34/100 13/32/100
f 59/33/101 14/36/101 13/32/101
f 59/33/102 58/38/102 15/35/102
f 57/37/103 16/40/103 15/35/103
f 57/37/104 56/42/104 17/39/104
f 55/41/105 18/44/105 17/39/105
f 54/43/106 19/46/106 18/44/106
f 53/45/107 20/48/107 19/46/107
f 52/47/108 21/50/108 20/48/108
f 52/47/109 51/51/109 22/49/109
f 51/51/110 50/53/110 23/52/110
f 49/12/111 24/11/111 23/52/111
f 48/54/112 60/57/112 12/23/112
f 47/56/113 59/59/113 60/57/113
f 47/56/114 46/61/114 58/58/114
f 45/60/115 57/63/115 58/58/115
f 45/60/116 44/64/116 56/62/116
f 44/64/117 43/67/117 55/65/117
f 42/66/118 54/69/118 55/65/118
f 41/68/119 53/71/119 54/69/119
f 40/70/120 52/73/120 53/71/120
f 40/70/121 39/74/121 51/72/121
f 39/74/122 38/76/122 50/75/122
f 37/9/123 49/8/123 50/75/123
f 36/77/124 48/80/124 11/78/124
f 36/77/125 35/82/125 47/79/125
f 34/81/126 46/84/126 47/79/126
f 34/81/127 33/86/127 45/83/127
f 32/85/128 44/88/128 45/83/128
f 31/87/129 43/90/129 44/88/129
f 31/87/130 30/92/130 42/89/130
f 29/91/131 41/94/131 42/89/131
f 28/93/132 40/96/132 41/94/132
f 27/95/133 39/98/133 40/96/133
f 26/97/134 38/99/134 39/98/134
f 25/6/135 37/5/135 38/99/135
f 13/100/136 36/103/136 10/101/136
f 13/100/137 14/105/137 35/102/137
f 15/104/138 34/107/138 35/102/138
f 15/104/139 16/109/139 33/106/139
f 17/108/140 32/111/140 33/106/140
f 17/108/141 18/112/141 31/110/141
f 18/112/142 19/114/142 30/113/142
f 19/114/143 20/116/143 29/115/143
f 20/116/144 21/119/144 28/117/144
f 22/118/145 27/121/145 28/117/145
f 23/120/146 26/122/146 27/121/146
f 23/120/147 24/1/147 25/3/147
f 85/123/148 68/127/148 3/124/148
f 86/126/149 67/129/149 68/127/149
f 86/126/150 87/131/150 66/128/150
f 88/130/151 65/133/151 66/128/151
f 89/132/152 64/135/152 65/133/152
f 89/132/153 90/136/153 63/134/153
f 90/136/154 91/138/154 62/137/154
f 91/138/155 92/30/155 61/29/155
f 68/139/156 76/143/156 7/140/156
f 67/142/157 75/145/157 76/143/157
f 67/142/158 66/147/158 74/144/158
f 65/146/159 73/149/159 74/144/159
f 64/148/160 72/151/160 73/149/160
f 64/148/161 63/152/161 71/150/161
f 63/152/162 62/154/162 70/153/162
f 62/154/163 61/27/163 69/26/163
f 7/155/164 76/158/164 84/156/164
f 76/158/165 75/161/165 83/159/165
f 74/160/166 82/163/166 83/159/166
f 74/160/167 73/164/167 81/162/167
f 73/164/168 72/167/168 80/165/168
f 71/166/169 79/169/169 80/165/169
f 70/168/170 78/170/170 79/169/170
f 69/22/171 77/24/171 78/170/171
f 5/171/172 84/175/172 85/172/172
f 83/174/173 86/177/173 85/172/173
f 82/176/174 87/179/174 86/177/174
f 82/176/175 81/180/175 88/178/175
f 81/180/176 80/183/176 89/181/176
f 79/182/177 90/185/177 89/181/177
f 78/184/178 91/186/178 90/185/178
f 77/19/179 92/21/179 91/186/179
