# Blender v2.83.0 OBJ File: 'arsenal.blend'
# www.blender.org
mtllib spectral_arrow.mtl
o Sphere_Sphere.002
v 0.076121 -0.011010 0.013494
v 0.071085 -0.060819 0.011173
v 0.014107 -0.182799 -0.001414
v -0.069138 -0.160153 -0.014899
v 0.071418 0.030890 0.022465
v 0.067658 -0.005088 0.030423
v 0.056374 -0.051408 0.039495
v 0.032563 -0.106947 0.046958
v -0.013671 -0.158197 0.048223
v -0.077302 -0.143389 0.010416
v 0.064729 0.039573 0.027040
v 0.053482 0.012460 0.038953
v 0.032521 -0.024436 0.050010
v -0.000920 -0.068158 0.052473
v -0.045642 -0.107880 0.045859
v -0.083000 -0.114054 0.013349
v 0.058172 0.053796 0.027556
v 0.040113 0.040884 0.039032
v 0.011715 0.016167 0.046990
v -0.025195 -0.022736 0.043852
v -0.064707 -0.063756 0.032294
v -0.089260 -0.088629 0.007039
v 0.053884 0.073276 0.024951
v 0.031627 0.081524 0.034108
v -0.001668 0.074768 0.038464
v -0.042030 0.028989 0.032233
v -0.073821 -0.023545 0.017093
v -0.094933 -0.068115 -0.000870
v 0.052780 0.095978 0.020025
v 0.030034 0.136719 0.025766
v -0.006282 0.173493 0.029375
v -0.052431 0.091607 0.017216
v -0.081937 0.011229 0.001970
v -0.098024 -0.052183 -0.010242
v 0.054383 0.112024 0.013252
v 0.035056 0.194045 0.013113
v 0.002820 0.386796 0.016683
v -0.055678 0.153153 -0.004228
v -0.087129 0.030746 -0.016016
v -0.097079 -0.045205 -0.020193
v 0.055480 0.096045 0.005239
v 0.035356 0.136828 -0.004879
v 0.002676 0.173957 -0.017908
v -0.042833 0.090947 -0.028555
v -0.078553 0.008630 -0.034037
v -0.092485 -0.053419 -0.029794
v 0.058272 0.073328 -0.000335
v 0.040540 0.081638 -0.015954
v 0.011750 0.074737 -0.033015
v -0.025884 0.027742 -0.044146
v -0.063232 -0.027269 -0.047929
v -0.085205 -0.070349 -0.038279
v -0.095041 -0.101520 -0.020552
v 0.063123 0.053867 -0.002393
v 0.050618 0.041040 -0.020291
v 0.027777 0.016069 -0.039935
v -0.005224 -0.024847 -0.054835
v -0.042171 -0.064931 -0.056449
v -0.077284 -0.092293 -0.046327
v 0.068687 0.039684 -0.000344
v 0.063215 0.012748 -0.017146
v 0.047235 -0.023755 -0.036303
v 0.020905 -0.069544 -0.056356
v -0.020418 -0.106181 -0.060821
v -0.068328 -0.117031 -0.049102
v 0.073108 0.030985 0.005716
v 0.073224 -0.004745 -0.004998
v 0.064794 -0.050186 -0.019292
v 0.047736 -0.105928 -0.038601
v 0.003496 -0.150425 -0.050701
v -0.060911 -0.140707 -0.039996
v 0.065157 0.060835 0.013579
v 0.074896 0.027994 0.014404
v 0.058728 -0.123559 0.006852
vt 0.248672 0.964192
vt 0.144226 0.936278
vt 0.243660 0.925256
vt 0.001200 0.790191
vt 0.074952 0.862913
vt 0.023967 0.903337
vt 0.010759 0.632574
vt 0.022748 0.691509
vt 0.000112 0.700668
vt 0.302565 0.874567
vt 0.110811 0.999888
vt 0.037572 0.771442
vt 0.031085 0.576206
vt 0.021424 0.629313
vt 0.192442 0.865833
vt 0.256912 0.883752
vt 0.128347 0.801454
vt 0.050174 0.663157
vt 0.079619 0.727495
vt 0.034468 0.615592
vt 0.274829 0.847416
vt 0.174961 0.730894
vt 0.076131 0.615974
vt 0.232342 0.802737
vt 0.119661 0.661394
vt 0.046697 0.591406
vt 0.056559 0.557151
vt 0.096861 0.545814
vt 0.290651 0.817160
vt 0.261201 0.741451
vt 0.152993 0.562074
vt 0.215140 0.647110
vt 0.304474 0.794029
vt 0.290665 0.685682
vt 0.110189 0.447435
vt 0.181410 0.387078
vt 0.062172 0.516605
vt 0.250085 0.541121
vt 0.315421 0.654363
vt 0.112497 0.343039
vt 0.209410 0.000112
vt 0.061131 0.487067
vt 0.315421 0.784070
vt 0.279049 0.432971
vt 0.381974 0.512258
vt 0.349938 0.424952
vt 0.381856 0.482382
vt 0.628678 0.213424
vt 0.605631 0.304483
vt 0.615804 0.200712
vt 0.598837 0.561610
vt 0.500389 0.607043
vt 0.564002 0.451708
vt 0.430398 0.549033
vt 0.435596 0.653763
vt 0.614858 0.120212
vt 0.628678 0.341594
vt 0.538112 0.991264
vt 0.573065 0.247517
vt 0.599201 0.174621
vt 0.467707 0.432322
vt 0.523709 0.344837
vt 0.414237 0.451047
vt 0.375115 0.441960
vt 0.432254 0.333779
vt 0.482096 0.260212
vt 0.391814 0.381577
vt 0.580973 0.141530
vt 0.533281 0.190605
vt 0.364606 0.408124
vt 0.561425 0.106063
vt 0.434943 0.191862
vt 0.493010 0.130101
vt 0.365366 0.335584
vt 0.392870 0.270325
vt 0.352282 0.384624
vt 0.546825 0.068856
vt 0.384913 0.137226
vt 0.449570 0.066070
vt 0.338996 0.309144
vt 0.352419 0.229545
vt 0.339467 0.371636
vt 0.316525 0.301638
vt 0.315644 0.212913
vt 0.328304 0.369006
vt 0.557812 0.027731
vt 0.335284 0.101460
vt 0.414084 0.000112
vn -0.4264 -0.8114 0.3998
vn 0.7826 -0.1949 0.5913
vn 0.8968 0.0179 0.4421
vn -0.9135 -0.4060 -0.0257
vn 0.5974 -0.5335 0.5987
vn 0.8665 -0.1103 0.4868
vn 0.9142 0.2785 0.2944
vn -0.6249 -0.1969 0.7555
vn 0.2091 0.0416 0.9770
vn 0.6090 0.1101 0.7855
vn -0.9433 -0.2090 0.2578
vn -0.0145 0.0377 0.9992
vn 0.4600 0.0615 0.8858
vn 0.7824 0.3218 0.5332
vn -0.6586 0.0245 0.7521
vn -0.1013 0.1330 0.9859
vn 0.4375 0.2033 0.8759
vn -0.9471 -0.1648 0.2754
vn -0.2870 0.1660 0.9434
vn 0.2010 0.1747 0.9639
vn 0.7656 0.3330 0.5503
vn 0.4346 0.1972 0.8788
vn -0.9492 -0.1574 0.2724
vn -0.4735 0.2155 0.8540
vn 0.1252 0.1708 0.9773
vn 0.8102 0.2493 0.5305
vn -0.7415 0.0528 0.6689
vn -0.2307 0.1412 0.9627
vn -0.9819 -0.0937 0.1645
vn -0.6431 0.1742 0.7457
vn 0.1972 0.0990 0.9754
vn 0.7857 0.1675 0.5956
vn -0.8180 0.1654 0.5510
vn -0.3330 0.1672 0.9280
vn 0.4779 0.1447 0.8664
vn -0.8477 0.2196 0.4829
vn 0.3481 0.0409 0.9366
vn 0.7896 0.1700 0.5896
vn -0.9700 0.2324 0.0709
vn -0.6106 0.2316 0.7573
vn 0.5560 0.1324 0.8206
vn -0.9923 -0.0352 -0.1189
vn 0.9443 0.1971 -0.2637
vn -0.8350 0.1513 -0.5290
vn -0.3149 0.2886 -0.9042
vn 0.7940 0.1861 -0.5787
vn -0.9115 -0.0304 -0.4102
vn -0.6372 0.3231 -0.6997
vn 0.6461 0.1220 -0.7534
vn -0.6054 0.1330 -0.7847
vn -0.0089 0.2372 -0.9714
vn 0.7319 0.1995 -0.6516
vn -0.8187 -0.0661 -0.5705
vn -0.2681 0.2461 -0.9315
vn 0.5296 0.1748 -0.8301
vn 0.9369 0.1876 -0.2951
vn 0.1289 0.2459 -0.9607
vn 0.7030 0.2458 -0.6674
vn -0.8079 -0.0773 -0.5842
vn -0.1231 0.1530 -0.9805
vn 0.4774 0.2304 -0.8480
vn 0.9378 0.2583 -0.2321
vn -0.4019 0.1839 -0.8970
vn -0.7683 -0.2103 -0.6046
vn 0.0095 0.1104 -0.9938
vn 0.5435 0.1910 -0.8174
vn 0.9119 0.3207 -0.2561
vn -0.2421 0.0212 -0.9700
vn 0.3209 0.2190 -0.9214
vn 0.7257 0.2519 -0.6402
vn -0.7645 -0.4257 -0.4841
vn 0.3097 -0.0497 -0.9495
vn 0.7463 0.0698 -0.6619
vn 0.9229 0.3071 -0.2325
vn -0.1339 -0.3920 -0.9102
vn 0.6226 0.0792 -0.7786
vn 0.8581 0.1500 -0.4910
vn 0.9691 -0.0872 -0.2306
vn 0.9546 0.2806 -0.0999
vn -0.2176 -0.7357 -0.6414
vn 0.9420 -0.1654 -0.2920
vn 0.9891 0.0344 -0.1433
vn -0.7482 -0.3828 -0.5419
vn 0.7329 -0.4855 -0.4767
vn -0.2945 -0.9116 0.2870
vn 0.8112 -0.2787 0.5140
vn 0.9171 -0.0077 0.3985
vn 0.5975 -0.5241 0.6069
vn 0.8709 -0.1187 0.4769
vn -0.5379 -0.3049 0.7859
vn 0.2584 -0.1438 0.9553
vn 0.6300 0.0782 0.7727
vn -0.0121 -0.1510 0.9885
vn 0.4958 -0.0215 0.8682
vn -0.6802 -0.0695 0.7297
vn -0.1055 0.0199 0.9942
vn 0.4389 0.1704 0.8823
vn -0.3003 0.0205 0.9536
vn 0.1958 0.0894 0.9766
vn 0.4134 0.2095 0.8861
vn -0.4823 0.0396 0.8751
vn 0.1004 0.1403 0.9850
vn -0.7420 0.0833 0.6653
vn -0.2450 0.0846 0.9658
vn -0.6252 0.0823 0.7761
vn 0.0980 0.1515 0.9836
vn -0.7873 0.0820 0.6111
vn -0.3658 0.0684 0.9282
vn 0.4377 0.2109 0.8740
vn -0.8108 0.1540 0.5647
vn 0.2795 0.1835 0.9424
vn -0.9217 0.1001 0.3747
vn -0.5813 0.0730 0.8104
vn 0.6297 0.2478 0.7362
vn -0.8180 0.1379 -0.5584
vn -0.2773 0.1543 -0.9483
vn 0.8317 0.2934 -0.4714
vn -0.5242 0.2141 -0.8242
vn 0.5868 0.2457 -0.7716
vn -0.5715 0.0724 -0.8174
vn -0.0371 0.1471 -0.9884
vn 0.7033 0.2498 -0.6656
vn -0.2448 0.1698 -0.9546
vn 0.4589 0.2160 -0.8618
vn 0.1089 0.1457 -0.9833
vn -0.1231 0.1510 -0.9808
vn 0.4617 0.2068 -0.8626
vn -0.3881 -0.0085 -0.9216
vn 0.0041 0.0364 -0.9993
vn 0.5446 0.1508 -0.8250
vn -0.2541 -0.0315 -0.9667
vn 0.3307 0.0758 -0.9407
vn 0.7336 0.1937 -0.6514
vn 0.3025 -0.2285 -0.9254
vn 0.7701 -0.0024 -0.6379
vn -0.2022 -0.3209 -0.9253
vn 0.6567 -0.0481 -0.7526
vn 0.8744 0.1162 -0.4711
vn 0.9738 -0.1199 -0.1932
vn -0.1443 -0.8410 -0.5214
vn 0.9441 -0.1975 -0.2639
vn 0.9816 0.0578 -0.1821
vn 0.7023 -0.5898 -0.3986
usemtl Material.005
s off
f 4/1/1 9/2/1 10/3/1
f 2/4/2 8/5/2 74/6/2
f 73/7/3 6/8/3 1/9/3
f 53/10/4 4/1/4 10/3/4
f 74/6/5 9/2/5 3/11/5
f 1/9/6 7/12/6 2/4/6
f 73/7/7 72/13/7 5/14/7
f 10/3/8 15/15/8 16/16/8
f 7/12/9 14/17/9 8/5/9
f 5/14/10 12/18/10 6/8/10
f 53/10/11 10/3/11 16/16/11
f 8/5/12 15/15/12 9/2/12
f 6/8/13 13/19/13 7/12/13
f 5/14/14 72/13/14 11/20/14
f 15/15/15 22/21/15 16/16/15
f 13/19/16 20/22/16 14/17/16
f 11/20/17 18/23/17 12/18/17
f 53/10/18 16/16/18 22/21/18
f 14/17/19 21/24/19 15/15/19
f 12/18/20 19/25/20 13/19/20
f 11/20/21 72/13/21 17/26/21
f 18/23/22 23/27/22 24/28/22
f 53/10/23 22/21/23 28/29/23
f 20/22/24 27/30/24 21/24/24
f 18/23/25 25/31/25 19/25/25
f 17/26/26 72/13/26 23/27/26
f 21/24/27 28/29/27 22/21/27
f 19/25/28 26/32/28 20/22/28
f 53/10/29 28/29/29 34/33/29
f 26/32/30 33/34/30 27/30/30
f 25/31/31 30/35/31 31/36/31
f 23/27/32 72/13/32 29/37/32
f 27/30/33 34/33/33 28/29/33
f 25/31/34 32/38/34 26/32/34
f 24/28/35 29/37/35 30/35/35
f 32/38/36 39/39/36 33/34/36
f 31/36/37 36/40/37 37/41/37
f 29/37/38 72/13/38 35/42/38
f 33/34/39 40/43/39 34/33/39
f 31/36/40 38/44/40 32/38/40
f 30/35/41 35/42/41 36/40/41
f 53/10/42 34/33/42 40/43/42
f 35/45/43 72/46/43 41/47/43
f 40/48/44 45/49/44 46/50/44
f 38/51/45 43/52/45 44/53/45
f 35/45/46 42/54/46 36/55/46
f 53/56/47 40/48/47 46/50/47
f 39/57/48 44/53/48 45/49/48
f 36/55/49 43/52/49 37/58/49
f 46/50/50 51/59/50 52/60/50
f 44/53/51 49/61/51 50/62/51
f 41/47/52 48/63/52 42/54/52
f 53/56/53 46/50/53 52/60/53
f 45/49/54 50/62/54 51/59/54
f 42/54/55 49/61/55 43/52/55
f 41/47/56 72/46/56 47/64/56
f 50/62/57 56/65/57 57/66/57
f 47/64/58 55/67/58 48/63/58
f 53/56/59 52/60/59 59/68/59
f 51/59/60 57/66/60 58/69/60
f 49/61/61 55/67/61 56/65/61
f 47/64/62 72/46/62 54/70/62
f 52/60/63 58/69/63 59/68/63
f 53/56/64 59/68/64 65/71/64
f 58/69/65 63/72/65 64/73/65
f 56/65/66 61/74/66 62/75/66
f 54/70/67 72/46/67 60/76/67
f 59/68/68 64/73/68 65/71/68
f 57/66/69 62/75/69 63/72/69
f 55/67/70 60/76/70 61/74/70
f 53/56/71 65/71/71 71/77/71
f 64/73/72 69/78/72 70/79/72
f 62/75/73 67/80/73 68/81/73
f 60/76/74 72/46/74 66/82/74
f 64/73/75 71/77/75 65/71/75
f 63/72/76 68/81/76 69/78/76
f 61/74/77 66/82/77 67/80/77
f 68/81/78 1/83/78 2/84/78
f 66/82/79 72/46/79 73/85/79
f 70/79/80 4/86/80 71/77/80
f 69/78/81 2/84/81 74/87/81
f 67/80/82 73/85/82 1/83/82
f 53/56/83 71/77/83 4/86/83
f 70/79/84 74/87/84 3/88/84
f 4/1/85 3/11/85 9/2/85
f 2/4/86 7/12/86 8/5/86
f 73/7/87 5/14/87 6/8/87
f 74/6/88 8/5/88 9/2/88
f 1/9/89 6/8/89 7/12/89
f 10/3/90 9/2/90 15/15/90
f 7/12/91 13/19/91 14/17/91
f 5/14/92 11/20/92 12/18/92
f 8/5/93 14/17/93 15/15/93
f 6/8/94 12/18/94 13/19/94
f 15/15/95 21/24/95 22/21/95
f 13/19/96 19/25/96 20/22/96
f 11/20/97 17/26/97 18/23/97
f 14/17/98 20/22/98 21/24/98
f 12/18/99 18/23/99 19/25/99
f 18/23/100 17/26/100 23/27/100
f 20/22/101 26/32/101 27/30/101
f 18/23/102 24/28/102 25/31/102
f 21/24/103 27/30/103 28/29/103
f 19/25/104 25/31/104 26/32/104
f 26/32/105 32/38/105 33/34/105
f 25/31/106 24/28/106 30/35/106
f 27/30/107 33/34/107 34/33/107
f 25/31/108 31/36/108 32/38/108
f 24/28/109 23/27/109 29/37/109
f 32/38/110 38/44/110 39/39/110
f 31/36/111 30/35/111 36/40/111
f 33/34/112 39/39/112 40/43/112
f 31/36/113 37/41/113 38/44/113
f 30/35/114 29/37/114 35/42/114
f 40/48/115 39/57/115 45/49/115
f 38/51/116 37/58/116 43/52/116
f 35/45/117 41/47/117 42/54/117
f 39/57/118 38/51/118 44/53/118
f 36/55/119 42/54/119 43/52/119
f 46/50/120 45/49/120 51/59/120
f 44/53/121 43/52/121 49/61/121
f 41/47/122 47/64/122 48/63/122
f 45/49/123 44/53/123 50/62/123
f 42/54/124 48/63/124 49/61/124
f 50/62/125 49/61/125 56/65/125
f 47/64/58 54/70/58 55/67/58
f 51/59/126 50/62/126 57/66/126
f 49/61/127 48/63/127 55/67/127
f 52/60/128 51/59/128 58/69/128
f 58/69/129 57/66/129 63/72/129
f 56/65/130 55/67/130 61/74/130
f 59/68/131 58/69/131 64/73/131
f 57/66/132 56/65/132 62/75/132
f 55/67/133 54/70/133 60/76/133
f 64/73/134 63/72/134 69/78/134
f 62/75/135 61/74/135 67/80/135
f 64/73/136 70/79/136 71/77/136
f 63/72/137 62/75/137 68/81/137
f 61/74/138 60/76/138 66/82/138
f 68/81/139 67/80/139 1/83/139
f 70/79/140 3/88/140 4/86/140
f 69/78/141 68/81/141 2/84/141
f 67/80/142 66/82/142 73/85/142
f 70/79/143 69/78/143 74/87/143
